Coordinates
version=1
nRows=6
nColumns=107
inDegrees=yes

Units are S.I. units (second, meters, Newtons, ...)
If the header above contains a line with 'inDegrees', this indicates whether rotational values are in degrees (yes) or radians (no).

endheader
time	sternoclavicular_r2	sternoclavicular_r3	unrotscap_r3	unrotscap_r2	acromioclavicular_r2	acromioclavicular_r3	acromioclavicular_r1	unrothum_r1	unrothum_r3	unrothum_r2	elv_angle	shoulder_elv	shoulder1_r2	shoulder_rot	elbow_flexion	pro_sup	deviation	flexion	proximal_distal_r1	proximal_distal_r3	cmc_flexion	cmc_abduction	mp_flexion	ip_flexion	mcp2_flexion	mcp2_abduction	pm2_flexion	md2_flexion	mcp3_flexion	mcp3_abduction	pm3_flexion	md3_flexion	mcp4_flexion	mcp4_abduction	pm4_flexion	md4_flexion	mcp5_flexion	mcp5_abduction	pm5_flexion	md5_flexion	bicpt_tx	bicpt_ty	bicpt_tz	bicpt2_tx	bicpt2_ty	bicpt2_tz	ptpt_tx	ptpt_ty	ptpt_tz	FCUpt_tx	FCUpt_ty	FCUpt_tz	EDCpt_tx	EDCpt_ty	EDCpt_tz	APLpt_tx	APLpt_ty	APLpt_tz	FPLpt_tx	FPLpt_ty	FPLpt_tz	FPLpt2_tx	FPLpt2_ty	FPLpt2_tz	PEC1pt2_tx	PEC1pt2_ty	PEC1pt2_tz	PEC1pt3_tx	PEC1pt3_ty	PEC1pt3_tz	PEC2pt2_tx	PEC2pt2_ty	PEC2pt2_tz	PEC2pt3_tx	PEC2pt3_ty	PEC2pt3_tz	PEC3pt2_tx	PEC3pt2_ty	PEC3pt2_tz	PEC3pt3_tx	PEC3pt3_ty	PEC3pt3_tz	DELT2pt2a_tx	DELT2pt2a_ty	DELT2pt2a_tz	DELT2pt2_tx	DELT2pt2_ty	DELT2pt2_tz	LAT1pt2_tx	LAT1pt2_ty	LAT1pt2_tz	LAT1pt3_tx	LAT1pt3_ty	LAT1pt3_tz	LAT2pt2_tx	LAT2pt2_ty	LAT2pt2_tz	LAT2pt3_tx	LAT2pt3_ty	LAT2pt3_tz	LAT3pt2_tx	LAT3pt2_ty	LAT3pt2_tz	LAT3pt3_tx	LAT3pt3_ty	LAT3pt3_tz
      0.50000000	     -0.31160004	      0.13197907	     -0.13197907	      0.31160004	     -0.06309267	      0.50989276	      0.22919329	     -0.22919329	     -0.50989276	      0.06309267	    102.92558437	     73.77407876	     -1.79639033	    -42.50773190	     30.37554721	     85.31732858	      0.36593873	     -0.50152181	      0.38702334	     -0.25076091	     41.92058255	     -7.71767169	     20.44467826	      7.57795440	     98.04718398	     10.95250831	     83.48737382	     80.34492260	     92.68706884	     -0.87963741	     83.93441221	     57.58190053	     83.50842922	    -13.42775667	     94.88864957	     43.56124239	     95.25930984	    -14.10492036	    448.99473453	      5.52003098	      0.00090473	     -0.03108150	     -0.00486078	      0.01430995	     -0.01845167	     -0.00119262	      0.00124601	     -0.06897626	     -0.00692277	      0.01265965	     -0.18226079	      0.00006517	     -0.01023806	      0.00354062	     -0.00073542	      0.00030250	      0.00012100	      0.00060499	      0.00038720	      0.00116159	      0.00065339	     -0.00000752	     -0.00007172	     -0.00008606	      0.00241815	      0.00848403	      0.00590193	     -0.00791023	      0.01909931	     -0.01811565	      0.00241815	      0.00848403	      0.00590193	      0.00053281	      0.01770579	     -0.00930374	      0.00385631	      0.00471786	      0.01573930	      0.00000000	      0.00727567	      0.00000000	     -0.00692657	     -0.03200978	     -0.00599614	      0.02337644	     -0.00120274	     -0.01442148	     -0.00086070	      0.01442694	     -0.00590193	      0.00237717	      0.02082070	     -0.01721397	     -0.00577897	      0.01250062	     -0.00528715	     -0.01204978	      0.02639475	     -0.02955064	     -0.02262407	      0.01397610	     -0.00709051	     -0.01500074	      0.03049331	     -0.03692806
      0.53333333	     -0.31098339	      0.13171789	     -0.13171789	      0.31098339	     -0.06296781	      0.50888370	      0.22873972	     -0.22873972	     -0.50888370	      0.06296781	    103.29632315	     73.62808178	     -1.80286094	    -43.87626381	     30.29001471	     85.88526479	      0.34579834	     -0.54834596	      0.37142321	     -0.27417298	     41.96266533	     -7.47184608	     20.61358666	      7.31202464	     98.15582353	     10.92504505	     83.45631658	     79.51969331	     92.67856774	     -0.87476343	     84.08799481	     56.77446476	     83.59853266	    -13.42825146	     94.87753072	     43.60539442	     95.25852239	    -14.10464252	    449.16212238	      5.53049563	      0.00090190	     -0.03107170	     -0.00485920	      0.01425176	     -0.01842843	     -0.00109568	      0.00120405	     -0.06900340	     -0.00696852	      0.01272482	     -0.18224162	      0.00008064	     -0.01030621	      0.00357172	     -0.00075354	      0.00030923	      0.00012369	      0.00061845	      0.00039581	      0.00118743	      0.00066793	     -0.00000744	     -0.00007081	     -0.00008497	      0.00241337	      0.00846724	      0.00589025	     -0.00789457	      0.01906151	     -0.01807980	      0.00241337	      0.00846724	      0.00589025	      0.00053176	      0.01767075	     -0.00928533	      0.00385065	      0.00470852	      0.01572492	      0.00000000	      0.00724672	      0.00000000	     -0.00691286	     -0.03194643	     -0.00597210	      0.02374162	     -0.00125328	     -0.01526399	     -0.00085900	      0.01439839	     -0.00589025	      0.00237246	      0.02077950	     -0.01717990	     -0.00576754	      0.01247588	     -0.00527668	     -0.01202593	      0.02634251	     -0.02949216	     -0.02257930	      0.01394844	     -0.00707648	     -0.01497106	      0.03043297	     -0.03685498
      0.56666667	     -0.31163021	      0.13199185	     -0.13199185	      0.31163021	     -0.06309878	      0.50994213	      0.22921548	     -0.22921548	     -0.50994213	      0.06309878	    102.86920472	     73.78122141	     -1.79540632	    -42.37244471	     30.47218924	     85.44079584	      0.36404578	     -0.49867206	      0.38558522	     -0.24933603	     41.94237395	     -7.63762474	     20.36034936	      7.81920337	     97.83580560	     10.92630794	     83.45499832	     79.81428456	     92.44972762	     -0.80352284	     84.01711474	     57.58614157	     83.28326308	    -13.42595380	     94.90469081	     43.64760476	     95.18392943	    -14.10107106	    448.88633114	      5.54879889	      0.00090793	     -0.03109258	     -0.00486256	      0.01429736	     -0.01847792	     -0.00117158	      0.00123689	     -0.06898216	     -0.00693271	      0.01267381	     -0.18225663	      0.00006851	     -0.01025287	      0.00354737	     -0.00073935	      0.00030196	      0.00012078	      0.00060392	      0.00038651	      0.00115952	      0.00065223	     -0.00000748	     -0.00007125	     -0.00008550	      0.00241839	      0.00848485	      0.00590250	     -0.00791099	      0.01910115	     -0.01811740	      0.00241839	      0.00848485	      0.00590250	      0.00053286	      0.01770751	     -0.00930464	      0.00385658	      0.00471832	      0.01574000	      0.00000000	      0.00727709	      0.00000000	     -0.00692724	     -0.03201288	     -0.00599732	      0.02333896	     -0.00119776	     -0.01433896	     -0.00086078	      0.01442834	     -0.00590250	      0.00237740	      0.02082272	     -0.01721563	     -0.00577953	      0.01250183	     -0.00528766	     -0.01205094	      0.02639730	     -0.02955350	     -0.02262626	      0.01397745	     -0.00709120	     -0.01500219	      0.03049626	     -0.03693163
      0.60000000	     -0.31251711	      0.13236750	     -0.13236750	      0.31251711	     -0.06327836	      0.51139343	      0.22986783	     -0.22986783	     -0.51139343	      0.06327836	    102.58181812	     73.99120329	     -1.79039048	    -41.09620334	     30.32528450	     84.68169132	      0.37253945	     -0.49146877	      0.39199186	     -0.24573439	     41.98677599	     -7.91753712	     20.58013249	      7.18911517	     97.80696848	     10.91702224	     83.48858318	     79.82379860	     92.43791747	     -0.70089460	     84.06181377	     57.32257457	     83.50191616	    -13.43799278	     94.60592803	     43.73122227	     95.44596437	    -14.10000006	    448.31438617	      5.57033027	      0.00090307	     -0.03107574	     -0.00485985	      0.01437420	     -0.01843801	     -0.00130058	      0.00129298	     -0.06894589	     -0.00687156	      0.01258683	     -0.18228213	      0.00004814	     -0.01016178	      0.00350594	     -0.00071536	      0.00030058	      0.00012023	      0.00060115	      0.00038474	      0.00115421	      0.00064924	     -0.00000739	     -0.00007029	     -0.00008434	      0.00242527	      0.00850900	      0.00591930	     -0.00793351	      0.01915552	     -0.01816897	      0.00242527	      0.00850900	      0.00591930	      0.00053438	      0.01775790	     -0.00933112	      0.00386471	      0.00473174	      0.01576059	      0.00000000	      0.00731883	      0.00000000	     -0.00694696	     -0.03210399	     -0.00603200	      0.02297352	     -0.00115090	     -0.01356745	     -0.00086323	      0.01446940	     -0.00591930	      0.00238416	      0.02088198	     -0.01726463	     -0.00579598	      0.01253741	     -0.00530271	     -0.01208524	      0.02647243	     -0.02963761	     -0.02269065	      0.01401723	     -0.00711138	     -0.01504489	      0.03058306	     -0.03703674
      0.63333333	     -0.31184534	      0.13208297	     -0.13208297	      0.31184534	     -0.06314234	      0.51029416	      0.22937371	     -0.22937371	     -0.51029416	      0.06314234	    102.70082625	     73.83215542	     -1.79246756	    -41.80537629	     30.56518801	     85.14211353	      0.36731345	     -0.48702120	      0.38806423	     -0.24351060	     41.95889103	     -7.77559620	     20.22362663	      8.27939638	     97.48160686	     10.90690764	     83.71119056	     78.98806466	     92.20123545	     -0.86375794	     84.07337452	     57.90554160	     82.83316596	    -13.40976099	     95.23307045	     43.68169250	     94.63274100	    -14.10458771	    449.33190978	      5.55593641	      0.00091100	     -0.03110324	     -0.00486428	      0.01432775	     -0.01850318	     -0.00122244	      0.00125896	     -0.06896789	     -0.00690865	      0.01263956	     -0.18226668	      0.00006044	     -0.01021703	      0.00353105	     -0.00072987	      0.00029966	      0.00011987	      0.00059933	      0.00038357	      0.00115071	      0.00064727	     -0.00000745	     -0.00007089	     -0.00008507	      0.00242006	      0.00849071	      0.00590658	     -0.00791645	      0.01911434	     -0.01812991	      0.00242006	      0.00849071	      0.00590658	      0.00053323	      0.01771973	     -0.00931106	      0.00385856	      0.00472157	      0.01574501	      0.00000000	      0.00728720	      0.00000000	     -0.00693202	     -0.03203498	     -0.00600572	      0.02317930	     -0.00117691	     -0.01399456	     -0.00086138	      0.01443830	     -0.00590658	      0.00237904	      0.02083709	     -0.01722752	     -0.00578352	      0.01251046	     -0.00529131	     -0.01205926	      0.02641553	     -0.02957391	     -0.02264188	      0.01398710	     -0.00709610	     -0.01501255	      0.03051732	     -0.03695713
      0.66666667	     -0.31189459	      0.13210383	     -0.13210383	      0.31189459	     -0.06315231	      0.51037476	      0.22940994	     -0.22940994	     -0.51037476	      0.06315231	    102.81316177	     73.84381660	     -1.79442819	    -42.05289265	     30.41622766	     85.29358760	      0.36264244	     -0.50581777	      0.38451605	     -0.25290889	     42.04082496	     -7.90887191	     20.77607863	      7.18450765	     97.58516614	     10.90402294	     83.64599334	     79.37649061	     92.26687093	     -0.74844952	     84.13723631	     57.85009522	     83.26863507	    -13.43013604	     94.58451083	     44.54506603	     95.07647791	    -14.10483028	    448.67351929	      5.56292790	      0.00090607	     -0.03108616	     -0.00486153	      0.01431236	     -0.01846272	     -0.00119667	      0.00124777	     -0.06897513	     -0.00692086	      0.01265693	     -0.18226159	      0.00006453	     -0.01023521	      0.00353932	     -0.00073467	      0.00030326	      0.00012130	      0.00060652	      0.00038817	      0.00116452	      0.00065504	     -0.00000729	     -0.00006911	     -0.00008294	      0.00242044	      0.00849205	      0.00590751	     -0.00791770	      0.01911736	     -0.01813277	      0.00242044	      0.00849205	      0.00590751	      0.00053332	      0.01772253	     -0.00931253	      0.00385901	      0.00472232	      0.01574615	      0.00000000	      0.00728952	      0.00000000	     -0.00693312	     -0.03204004	     -0.00600765	      0.02324959	     -0.00118600	     -0.01414454	     -0.00086151	      0.01444058	     -0.00590751	      0.00237941	      0.02084038	     -0.01723024	     -0.00578444	      0.01251244	     -0.00529214	     -0.01206117	      0.02641970	     -0.02957858	     -0.02264546	      0.01398931	     -0.00709722	     -0.01501492	      0.03052214	     -0.03696296
